# xmcd
#
# Track frame offsets: 
#        150
#        46700
#        86595
#        116940
#        184142
#        230692
#
# Disc length: 3444 seconds
#
# Revision: 5
# Processed by: cddbd v1.5.2PL0 Copyright (c) Steve Scherf et al.
# Submitted via: ExactAudioCopyFreeDBPlugin 1.0
#
DISCID=4a0d7206
DTITLE=Joachin Kuhn, Daniel Humar, J.-F. Jenny-Clark - Live Theatre de
DTITLE=la Ville, Paris 1989
DYEAR=1990
DGENRE=Jazz
TTITLE0=Changement
TTITLE1=Last Tango In Paris
TTITLE2=Clever Feelings
TTITLE3=Guylene
TTITLE4=Yesterdays
TTITLE5=Para
EXTD=
EXTT0=
EXTT1=
EXTT2=
EXTT3=
EXTT4=
EXTT5=
PLAYORDER=
